<svg width="178" height="25" viewBox="0 0 178 25" fill="none" xmlns="http://www.w3.org/2000/svg">
<path d="M0.52 20V0.399999H4.188L10.152 9.668L16.116 0.399999H19.784V20H16.34V5.944L10.152 15.184H10.04L3.908 6V20H0.52ZM27.4606 24.564C26.2286 24.564 25.0619 24.2653 23.9606 23.668L25.1086 21.148C25.7993 21.5213 26.4619 21.708 27.0966 21.708C27.5819 21.708 27.9833 21.5773 28.3006 21.316C28.6179 21.0733 28.9166 20.6347 29.1966 20L23.0366 5.216H26.6486L30.8486 16.192L34.6846 5.216H38.2126L32.3326 20.42C31.7353 21.932 31.0726 22.996 30.3446 23.612C29.6166 24.2467 28.6553 24.564 27.4606 24.564ZM48.3683 20.28C45.2509 20.28 42.5256 19.2347 40.1923 17.144L42.2643 14.68C44.2243 16.3787 46.2869 17.228 48.4523 17.228C49.5163 17.228 50.3563 17.004 50.9723 16.556C51.6069 16.0893 51.9243 15.4733 51.9243 14.708C51.9243 13.98 51.6256 13.4013 51.0283 12.972C50.4309 12.524 49.2549 12.0947 47.5003 11.684C45.2229 11.1427 43.5616 10.4613 42.5163 9.64C41.4896 8.8 40.9763 7.52133 40.9763 5.804C40.9763 4.124 41.6016 2.76133 42.8523 1.716C44.1029 0.651999 45.7083 0.119999 47.6683 0.119999C50.3563 0.119999 52.7269 0.941332 54.7803 2.584L52.9323 5.188C51.1216 3.844 49.3483 3.172 47.6123 3.172C46.6229 3.172 45.8389 3.396 45.2603 3.844C44.7003 4.292 44.4203 4.86133 44.4203 5.552C44.4203 6.31733 44.7283 6.91467 45.3443 7.344C45.9789 7.75467 47.2203 8.184 49.0683 8.632C51.2336 9.15467 52.8203 9.85467 53.8283 10.732C54.8549 11.6093 55.3683 12.8413 55.3683 14.428C55.3683 16.2387 54.7243 17.6667 53.4363 18.712C52.1483 19.7573 50.4589 20.28 48.3683 20.28ZM59.0264 20V5.216H62.4144V7.456C63.6464 5.75733 65.1491 4.908 66.9224 4.908C68.9758 4.908 70.4411 5.776 71.3184 7.512C72.6438 5.776 74.3144 4.908 76.3304 4.908C77.9544 4.908 79.2238 5.40267 80.1384 6.392C81.0531 7.38133 81.5104 8.772 81.5104 10.564V20H78.1224V11.6C78.1224 10.424 77.8611 9.528 77.3384 8.912C76.8158 8.296 76.0784 7.988 75.1264 7.988C74.1744 7.988 73.4091 8.31467 72.8304 8.968C72.2518 9.60267 71.9624 10.4987 71.9624 11.656V20H68.5744V11.572C68.5744 10.4333 68.3131 9.556 67.7904 8.94C67.2678 8.30533 66.5304 7.988 65.5784 7.988C64.6264 7.988 63.8611 8.324 63.2824 8.996C62.7038 9.64933 62.4144 10.5453 62.4144 11.684V20H59.0264ZM98.0359 20H94.6759V18.18C93.4812 19.5987 91.8852 20.308 89.8879 20.308C88.4132 20.308 87.1626 19.9067 86.1359 19.104C85.1279 18.2827 84.6239 17.144 84.6239 15.688C84.6239 14.1013 85.1746 12.8973 86.2759 12.076C87.3772 11.2547 88.8239 10.844 90.6159 10.844C92.0532 10.844 93.4159 11.0493 94.7039 11.46V11.18C94.7039 10.1533 94.3866 9.36933 93.7519 8.828C93.1359 8.28667 92.2399 8.016 91.0639 8.016C89.7199 8.016 88.3106 8.324 86.8359 8.94L85.9119 6.224C87.7412 5.40267 89.6172 4.992 91.5399 4.992C93.6866 4.992 95.3012 5.53333 96.3839 6.616C97.4852 7.69867 98.0359 9.23867 98.0359 11.236V20ZM94.7599 14.652V13.812C93.7519 13.42 92.6226 13.224 91.3719 13.224C90.3079 13.224 89.4772 13.4293 88.8799 13.84C88.2826 14.2507 87.9839 14.8293 87.9839 15.576C87.9839 16.248 88.2546 16.78 88.7959 17.172C89.3372 17.564 90.0186 17.76 90.8399 17.76C91.9786 17.76 92.9119 17.4707 93.6399 16.892C94.3866 16.3133 94.7599 15.5667 94.7599 14.652ZM102.066 20V5.216H105.454V8.548C106.499 6.028 108.244 4.824 110.69 4.936V8.52H110.494C108.963 8.52 107.74 9.024 106.826 10.032C105.911 11.0213 105.454 12.468 105.454 14.372V20H102.066ZM118.588 20.252C115.751 20.252 114.332 18.8053 114.332 15.912V8.128H112.456V5.216H114.332V1.156H117.72V5.216H121.696V8.128H117.72V15.38C117.72 16.612 118.327 17.228 119.54 17.228C120.268 17.228 120.968 17.06 121.64 16.724V19.496C120.744 20 119.727 20.252 118.588 20.252ZM135.354 18.308C134.106 19.58 132.528 20.216 130.62 20.216C128.712 20.216 127.14 19.586 125.904 18.326C124.668 17.066 124.05 15.524 124.05 13.7C124.05 11.9 124.674 10.364 125.922 9.092C127.17 7.82 128.748 7.184 130.656 7.184C132.564 7.184 134.136 7.814 135.372 9.074C136.608 10.334 137.226 11.876 137.226 13.7C137.226 15.5 136.602 17.036 135.354 18.308ZM127.578 16.886C128.394 17.75 129.42 18.182 130.656 18.182C131.892 18.182 132.906 17.75 133.698 16.886C134.502 16.022 134.904 14.96 134.904 13.7C134.904 12.452 134.496 11.396 133.68 10.532C132.876 9.656 131.856 9.218 130.62 9.218C129.384 9.218 128.364 9.65 127.56 10.514C126.768 11.378 126.372 12.44 126.372 13.7C126.372 14.948 126.774 16.01 127.578 16.886ZM153.221 9.038V6.968H155.561V9.038H153.221ZM146.903 20V12.368H145.697V10.55H146.903V9.866C146.903 8.81 147.161 8.024 147.677 7.508C148.181 7.004 148.889 6.752 149.801 6.752C150.425 6.752 151.019 6.836 151.583 7.004V8.84C151.115 8.684 150.689 8.606 150.305 8.606C149.465 8.606 149.045 9.086 149.045 10.046V10.568H151.565V12.368H149.081V20H146.903ZM140.135 20V12.368H138.929V10.55H140.135V9.866C140.135 8.81 140.393 8.024 140.909 7.508C141.413 7.004 142.127 6.752 143.051 6.752C143.663 6.752 144.251 6.836 144.815 7.004V8.84C144.347 8.684 143.921 8.606 143.537 8.606C142.697 8.606 142.277 9.086 142.277 10.046V10.568H144.797V12.368H142.313V20H140.135ZM153.293 20V10.496H155.489V20H153.293ZM162.727 20.216C161.323 20.216 160.153 19.736 159.217 18.776C158.281 17.816 157.813 16.646 157.813 15.266C157.813 13.898 158.281 12.728 159.217 11.756C160.165 10.784 161.341 10.298 162.745 10.298C164.281 10.298 165.547 10.844 166.543 11.936L165.193 13.394C164.437 12.602 163.615 12.206 162.727 12.206C161.947 12.206 161.293 12.506 160.765 13.106C160.249 13.694 159.991 14.414 159.991 15.266C159.991 16.13 160.255 16.856 160.783 17.444C161.323 18.032 162.007 18.326 162.835 18.326C163.711 18.326 164.533 17.93 165.301 17.138L166.615 18.434C166.099 19.01 165.535 19.454 164.923 19.766C164.323 20.066 163.591 20.216 162.727 20.216ZM172.71 20.216C171.318 20.216 170.154 19.754 169.218 18.83C168.294 17.906 167.832 16.712 167.832 15.248C167.832 13.868 168.27 12.698 169.146 11.738C170.022 10.778 171.132 10.298 172.476 10.298C173.916 10.298 175.032 10.79 175.824 11.774C176.628 12.746 177.03 13.958 177.03 15.41C177.03 15.674 177.018 15.878 176.994 16.022H170.01C170.13 16.778 170.436 17.372 170.928 17.804C171.42 18.224 172.026 18.434 172.746 18.434C173.682 18.434 174.54 18.056 175.32 17.3L176.598 18.434C175.614 19.622 174.318 20.216 172.71 20.216ZM169.992 14.582H174.87C174.798 13.85 174.552 13.25 174.132 12.782C173.712 12.314 173.154 12.08 172.458 12.08C171.798 12.08 171.246 12.314 170.802 12.782C170.358 13.238 170.088 13.838 169.992 14.582Z" fill="white"/>
</svg>
