<svg width="222" height="43" viewBox="0 0 222 43" fill="none" xmlns="http://www.w3.org/2000/svg">
<g clip-path="url(#clip0_77_46)">
<path fill-rule="evenodd" clip-rule="evenodd" d="M9.05716 42.3313C9.12487 42.4723 9.21934 42.5983 9.33515 42.7021C9.56909 42.9101 9.87428 43.0161 10.1846 42.9973C10.339 42.9881 10.4901 42.9479 10.6291 42.8791C10.768 42.8102 10.8922 42.7141 10.9944 42.5962C11.1995 42.3586 11.3041 42.0484 11.2855 41.733C11.2669 41.4175 11.1266 41.1223 10.895 40.9112C10.661 40.7023 10.3549 40.5961 10.0439 40.6159C9.73283 40.6358 9.44225 40.7801 9.2358 41.0171C9.13301 41.1342 9.05402 41.2708 9.00336 41.419C8.9527 41.5671 8.93137 41.724 8.94061 41.8806C8.94984 42.0372 8.98945 42.1904 9.05716 42.3313ZM6.13618 39.1678C6.1817 39.3174 6.25589 39.4564 6.35449 39.5768H6.352C6.47066 39.7225 6.62177 39.8373 6.79281 39.9119C6.96385 39.9865 7.14992 40.0186 7.33562 40.0056C7.58293 39.9903 7.81887 39.8949 8.00876 39.7332C8.1274 39.6334 8.22551 39.5108 8.29747 39.3725C8.36942 39.2341 8.41382 39.0827 8.42813 38.9269C8.44243 38.7711 8.42635 38.614 8.38082 38.4645C8.33529 38.3151 8.26119 38.1762 8.16276 38.0558C8.06485 37.9347 7.94429 37.8346 7.80805 37.7611C7.6718 37.6877 7.52257 37.6424 7.36898 37.6278C7.21539 37.6133 7.06048 37.6298 6.91321 37.6764C6.76594 37.723 6.62923 37.7988 6.51097 37.8994C6.39187 37.9989 6.29329 38.1212 6.22092 38.2595C6.14855 38.3978 6.10381 38.5492 6.08926 38.7051C6.07472 38.861 6.09067 39.0182 6.13618 39.1678ZM3.71639 35.5898C3.73894 35.7446 3.79134 35.8935 3.8706 36.0278H3.87308C3.98495 36.2169 4.14577 36.3713 4.33804 36.474C4.53031 36.5767 4.74665 36.6239 4.96351 36.6104C5.14715 36.5977 5.32513 36.5407 5.48264 36.444C5.61528 36.364 5.73103 36.2582 5.82324 36.1326C5.91544 36.007 5.98229 35.8641 6.01991 35.7122C6.05754 35.5603 6.06522 35.4023 6.0425 35.2474C6.01977 35.0925 5.9671 34.9436 5.88752 34.8094C5.80965 34.6735 5.70587 34.5546 5.58225 34.4599C5.45863 34.3651 5.31764 34.2964 5.16754 34.2576C5.01744 34.2189 4.86123 34.2109 4.70806 34.2342C4.55489 34.2575 4.40782 34.3115 4.27547 34.3932C4.14309 34.4734 4.02758 34.5794 3.93556 34.705C3.84354 34.8306 3.77681 34.9734 3.73921 35.1252C3.7016 35.277 3.69385 35.4349 3.71639 35.5898ZM1.87588 31.673C1.875 31.8299 1.9046 31.9854 1.96297 32.1306C2.05526 32.362 2.21642 32.5583 2.42394 32.6922C2.63146 32.8261 2.87498 32.8908 3.12047 32.8772C3.24354 32.8689 3.3644 32.8399 3.47815 32.7915C3.62302 32.7344 3.75529 32.6487 3.86726 32.5393C3.97923 32.4299 4.06867 32.299 4.13038 32.1542C4.19209 32.0094 4.22484 31.8536 4.22672 31.6958C4.2286 31.538 4.19958 31.3814 4.14134 31.2351C4.02335 30.942 3.79608 30.7081 3.50904 30.5843C3.222 30.4605 2.89843 30.4569 2.60878 30.5743C2.46566 30.6333 2.3354 30.7204 2.22545 30.8305C2.11551 30.9407 2.02804 31.0719 1.96806 31.2164C1.90807 31.361 1.87675 31.5161 1.87588 31.673ZM0.814432 27.0816C0.650221 27.3499 0.597012 27.6732 0.666384 27.9812C0.730036 28.2567 0.888246 28.5002 1.11265 28.668C1.33705 28.8358 1.61297 28.9169 1.89094 28.8968C1.95367 28.8913 2.01593 28.8812 2.07723 28.8666C2.22723 28.8315 2.36893 28.7667 2.49423 28.6759C2.61953 28.5851 2.72595 28.4701 2.8074 28.3375C2.88885 28.2049 2.94374 28.0572 2.9689 27.903C2.99406 27.7488 2.98902 27.5911 2.95405 27.4389C2.91924 27.2862 2.8551 27.142 2.76529 27.0145C2.67548 26.8871 2.56177 26.7789 2.43069 26.6961C2.29962 26.6134 2.15374 26.5578 2.00145 26.5324C1.84915 26.5071 1.69342 26.5125 1.5432 26.5484C1.24056 26.6216 0.978642 26.8132 0.814432 27.0816ZM0.28062 22.8091C0.0780703 23.0489 -0.0225935 23.3604 0.000702142 23.6754C0.0126197 23.832 0.0548809 23.9847 0.12506 24.1247C0.19524 24.2647 0.291955 24.3893 0.409656 24.4912C0.527357 24.5932 0.663725 24.6705 0.810935 24.7188C0.958144 24.7671 1.1133 24.7854 1.26749 24.7726C1.42087 24.7609 1.57043 24.7184 1.70755 24.6476C1.84467 24.5768 1.96663 24.4791 2.0664 24.3603C2.16616 24.2414 2.24174 24.1036 2.28879 23.9548C2.33584 23.8061 2.35343 23.6494 2.34052 23.4938C2.32922 23.3376 2.28762 23.1852 2.21813 23.0454C2.14863 22.9056 2.0526 22.7812 1.93556 22.6792C1.81853 22.5772 1.68279 22.4997 1.53617 22.4512C1.38954 22.4027 1.23492 22.3841 1.08119 22.3965C0.771071 22.421 0.483169 22.5694 0.28062 22.8091ZM0.644654 20.485C0.783187 20.5554 0.934092 20.5973 1.08865 20.6081C1.13987 20.6123 1.19131 20.6131 1.24265 20.6106C1.52632 20.5931 1.79413 20.4718 1.99646 20.2691C2.19878 20.0664 2.3219 19.7961 2.34301 19.5083C2.3552 19.3521 2.33678 19.1951 2.28883 19.0462C2.24087 18.8972 2.16433 18.7595 2.06363 18.6408C1.96293 18.5221 1.84006 18.4249 1.70213 18.3547C1.56419 18.2845 1.41394 18.2428 1.26003 18.232C0.950096 18.2076 0.64332 18.3092 0.407163 18.5145C0.171006 18.7198 0.0248025 19.012 0.000702142 19.3267C-0.0114825 19.4835 0.00706312 19.6413 0.0552671 19.7908C0.103471 19.9403 0.180377 20.0786 0.281541 20.1978C0.382705 20.3169 0.50612 20.4146 0.644654 20.485ZM0.800761 15.9288C0.96413 16.1977 1.2257 16.3901 1.52829 16.4637C1.64249 16.4885 1.75965 16.4962 1.87604 16.4864C2.12651 16.4701 2.3652 16.3726 2.55702 16.2082C2.74884 16.0438 2.88365 15.8213 2.94163 15.5733C3.01242 15.2649 2.95986 14.9406 2.79548 14.6715C2.6311 14.4025 2.36833 14.2106 2.06481 14.138C1.91476 14.1025 1.75928 14.0973 1.60727 14.1229C1.45525 14.1484 1.30968 14.2041 1.17888 14.2868C1.04808 14.3695 0.934617 14.4776 0.844974 14.6048C0.75533 14.7321 0.691267 14.876 0.656449 15.0285C0.585507 15.3361 0.637391 15.6598 0.800761 15.9288ZM1.95832 11.7841C2.07978 12.0761 2.31003 12.3075 2.59885 12.4278V12.4354C2.76388 12.5011 2.94104 12.5295 3.11798 12.5186C3.33769 12.5037 3.54881 12.4262 3.72716 12.295C3.90552 12.1639 4.04389 11.9844 4.12644 11.777C4.1847 11.6318 4.21414 11.4764 4.21306 11.3196C4.21199 11.1628 4.18043 11.0077 4.12019 10.8633C4.05995 10.719 3.97223 10.5881 3.86205 10.4782C3.75186 10.3684 3.6214 10.2817 3.47815 10.2232C3.33613 10.1634 3.18388 10.1327 3.03014 10.1328C2.87639 10.1329 2.72418 10.1638 2.58224 10.2238C2.4403 10.2838 2.31143 10.3717 2.20303 10.4824C2.09463 10.5931 2.00883 10.7245 1.95055 10.869C1.83408 11.1631 1.83687 11.492 1.95832 11.7841ZM3.72906 7.87852C3.80545 8.18457 3.99842 8.44728 4.26554 8.60886V8.61643C4.46963 8.74312 4.70749 8.80218 4.94612 8.78543C5.13579 8.77302 5.31953 8.71336 5.48112 8.61174C5.6427 8.51012 5.77716 8.36965 5.87261 8.20275C5.95171 8.06851 6.00391 7.91973 6.02625 7.76496C6.04858 7.61018 6.04059 7.45245 6.00274 7.30081C5.96489 7.14918 5.89793 7.00663 5.80569 6.88134C5.71346 6.75605 5.59776 6.6505 5.46526 6.57073C5.19902 6.40854 4.88031 6.36021 4.57903 6.43634C4.27775 6.51247 4.01851 6.70685 3.85818 6.97684C3.69911 7.24812 3.65266 7.57246 3.72906 7.87852ZM6.20874 4.74036C6.28175 4.87876 6.38111 5.00106 6.50104 5.10015L6.4911 5.10771C6.72047 5.3032 7.01422 5.40323 7.31327 5.3877C7.47281 5.37728 7.62848 5.33334 7.77043 5.25866C7.91238 5.18398 8.03751 5.08018 8.13792 4.95385C8.23673 4.83398 8.31122 4.69545 8.35711 4.54623C8.40299 4.39701 8.41937 4.24005 8.40528 4.08438C8.3912 3.92872 8.34694 3.77741 8.27505 3.63918C8.20316 3.50095 8.10507 3.37852 7.9864 3.27895C7.74853 3.07955 7.44322 2.98267 7.13587 3.00907C6.82852 3.03548 6.54358 3.18306 6.34207 3.4202C6.24291 3.54067 6.16831 3.67994 6.12259 3.82993C6.07687 3.97992 6.06094 4.13763 6.07573 4.29392C6.09052 4.45021 6.13573 4.60196 6.20874 4.74036ZM8.91756 1.12113C8.89848 1.43677 9.00305 1.74727 9.20848 1.98494C9.32852 2.12081 9.47749 2.2271 9.64406 2.29572C9.81063 2.36435 9.99041 2.3935 10.1697 2.38096C10.4279 2.36483 10.6735 2.26188 10.8677 2.08836C11.1004 1.87755 11.2416 1.58194 11.2607 1.26589C11.2798 0.949836 11.1751 0.638926 10.9696 0.400844C10.7624 0.164502 10.4715 0.0211739 10.1605 0.00226179C9.84946 -0.0166503 9.54375 0.0903953 9.31032 0.299947C9.07781 0.510315 8.93663 0.805496 8.91756 1.12113ZM170.559 3.24487L169.757 2.97616L157.833 39.6788L158.635 39.9475L170.559 3.24487ZM70.8898 11.8225C71.3574 12.0223 71.8009 12.2762 72.2112 12.5792C72.633 12.8443 73.1212 12.98 73.6171 12.9702C74.2132 12.9759 74.7906 12.7586 75.2391 12.3597L76.0985 11.719C75.7478 11.2951 75.3676 10.8972 74.9609 10.5284C74.4834 10.0964 73.9679 9.70969 73.4209 9.37317C72.8451 9.01987 72.2339 8.72983 71.5977 8.50797C70.9686 8.28413 70.307 8.16902 69.6404 8.16744C68.7421 8.16649 67.8494 8.30951 66.995 8.59121C66.1654 8.86043 65.3898 9.27816 64.7049 9.82468C64.0354 10.3609 63.4852 11.0348 63.0904 11.8023C62.6706 12.6299 62.4598 13.5503 62.4768 14.4811C62.4456 15.4223 62.6373 16.3574 63.0357 17.2079C63.3986 17.9247 63.9065 18.5556 64.526 19.0593C65.1702 19.5799 65.8792 20.0116 66.6349 20.3432C67.4181 20.6796 68.2237 21.0159 69.0517 21.3522C69.6064 21.5792 70.1719 21.8029 70.7482 22.0232C71.2941 22.2229 71.8158 22.4853 72.3031 22.8051C72.7477 23.0933 73.1318 23.468 73.4333 23.9074C73.7375 24.3942 73.8891 24.9633 73.868 25.5395C73.8806 26.1689 73.7216 26.7896 73.4085 27.3329C73.1082 27.8399 72.7092 28.2793 72.2361 28.6244C71.7545 28.9733 71.2201 29.24 70.6538 29.4139C70.1075 29.5903 69.538 29.6821 68.9648 29.6863C68.3584 29.6961 67.7552 29.5953 67.1838 29.3887C66.6686 29.1924 66.1905 28.9074 65.7705 28.5462L65.5022 28.3268C65.2681 28.0695 64.9831 27.8653 64.666 27.7275C64.3488 27.5897 64.0066 27.5214 63.6617 27.5271C63.194 27.5303 62.7364 27.6657 62.3402 27.9181L61.5354 28.3444L61.5642 28.3997L61.5643 28.3998L61.5646 28.4005C61.6277 28.5219 61.7074 28.6751 61.8037 28.8489C61.9155 29.0507 62.0521 29.2752 62.2135 29.5274C62.3907 29.7973 62.584 30.0559 62.7923 30.3018C63.0298 30.5836 63.2872 30.8474 63.5623 31.0913C65.0112 32.3929 66.8121 33.0437 68.9648 33.0437C70.0246 33.0417 71.0757 32.8495 72.0696 32.4762C73.0308 32.127 73.9213 31.603 74.6976 30.9299C75.4512 30.2716 76.0655 29.465 76.5034 28.5588C76.957 27.6107 77.1867 26.5682 77.174 25.5142C77.1724 23.3046 76.3295 21.5473 74.6454 20.2423C74.3147 19.9844 73.9623 19.7565 73.5923 19.5613C73.2172 19.3696 72.8496 19.1905 72.472 19.0265C72.0928 18.8634 71.7053 18.7104 71.3096 18.5674C70.9138 18.4245 70.5205 18.274 70.1297 18.1159C69.3365 17.8486 68.6642 17.5963 68.1128 17.3592C67.6351 17.1642 67.1829 16.91 66.7665 16.6025C66.4483 16.3657 66.1923 16.0529 66.0213 15.6919C65.8539 15.3008 65.7733 14.8771 65.7854 14.4508C65.7831 14.0418 65.8904 13.6398 66.0959 13.288C66.3078 12.9224 66.5929 12.6062 66.9329 12.3597C67.3064 12.0935 67.72 11.8908 68.1575 11.7594C68.6404 11.6098 69.143 11.5358 69.6478 11.5399C70.076 11.5506 70.498 11.6466 70.8898 11.8225ZM39.66 32.7914H36.3465V13.4014C36.3252 13.4768 36.3086 13.5535 36.2968 13.631L36.2807 13.7166L36.2802 13.7196L36.28 13.7203C36.2621 13.8158 36.2424 13.9207 36.2198 14.0371C36.19 14.191 36.1602 14.3448 36.1205 14.4962C36.0881 14.6271 36.0457 14.7553 35.9938 14.8796L28.2937 32.7889H25.0647L17.387 14.8947C17.3358 14.7983 17.2966 14.6957 17.2703 14.5895C17.238 14.4659 17.2057 14.3373 17.1784 14.2086C17.151 14.08 17.1287 13.9564 17.1113 13.8504C17.0964 13.7672 17.0881 13.6828 17.0865 13.5982V32.7687H13.7754V8.4398H16.5201C17.0292 8.43487 17.5278 8.58608 17.9508 8.87366C18.3692 9.14659 18.6978 9.54005 18.8947 10.0037L26.3737 27.4085C26.4631 27.6368 26.5337 27.8722 26.5848 28.1123C26.6361 28.3734 26.6669 28.6383 26.6767 28.9043C26.6979 28.391 26.8054 27.8851 26.9947 27.4085L34.4737 10.0037C34.6734 9.52957 35.0115 9.12901 35.4424 8.856C35.8619 8.58312 36.35 8.43863 36.8483 8.4398H39.66V32.7914ZM42.2928 14.9477H44.2129C44.4651 14.9479 44.716 14.9844 44.958 15.0562C45.1997 15.129 45.4303 15.2351 45.6436 15.3715C45.8552 15.5093 46.0445 15.6795 46.205 15.876C46.3649 16.0687 46.4925 16.2868 46.5825 16.5217L50.4623 25.5798C50.7799 26.2609 50.9566 27.0009 50.9815 27.7541C50.9825 27.9044 50.9717 28.0546 50.9492 28.2031C50.9264 28.3444 50.8923 28.4836 50.8473 28.6193C51.003 28.2359 51.4857 27.1118 52.2955 25.2468C53.1052 23.3819 54.2287 20.7754 55.6661 17.4273L56.0511 16.5268C56.2466 16.0595 56.5764 15.663 56.9975 15.3891C57.4226 15.1073 57.9205 14.9598 58.4282 14.9654H60.3333L50.5468 37.7833C50.3686 38.2791 50.033 38.7006 49.593 38.9815C49.1593 39.266 48.6537 39.4167 48.1374 39.4154H46.2248L49.5036 31.7673L42.2928 14.9477ZM92.9121 18.1739C93.1093 17.5872 93.4258 17.0493 93.841 16.5949C94.2421 16.1576 94.7112 15.7903 95.2295 15.5077C95.7507 15.2224 96.3082 15.0119 96.8863 14.8821C97.4572 14.7538 98.0402 14.6886 98.625 14.6879C99.5795 14.6582 100.524 14.8927 101.357 15.3664C102.1 15.8109 102.728 16.4282 103.19 17.1674C103.674 17.9545 104.021 18.8195 104.219 19.7252C104.436 20.6917 104.545 21.68 104.544 22.6714V32.7914H101.166V22.7017C101.163 22.176 101.126 21.6511 101.057 21.1302C100.992 20.5999 100.851 20.0823 100.637 19.594C100.449 19.141 100.162 18.7373 99.7974 18.4135C99.3971 18.09 98.8952 17.9243 98.3841 17.9469C97.8363 17.9456 97.2916 18.0307 96.7695 18.1991C96.2879 18.3491 95.8327 18.5755 95.4208 18.8701C95.0492 19.1331 94.7291 19.4642 94.4769 19.8463C94.245 20.1907 94.1094 20.5926 94.0845 21.0091V32.7914H90.7039V22.7017C90.7009 22.176 90.6643 21.6511 90.5946 21.1302C90.5307 20.6001 90.3901 20.0824 90.1773 19.594C89.9847 19.1396 89.6925 18.7358 89.3228 18.4135C88.9226 18.09 88.4206 17.9243 87.9095 17.9469C87.3617 17.9456 86.8171 18.0307 86.295 18.1991C85.814 18.3499 85.3596 18.5772 84.9487 18.8726C84.5764 19.1356 84.2555 19.4666 84.0024 19.8488C83.7714 20.1938 83.6359 20.5954 83.6099 21.0116V32.7914H80.2964V14.9477H83.1082C83.2006 15.0768 83.2836 15.2125 83.3565 15.3538C83.427 15.4993 83.486 15.6503 83.5329 15.8053C83.5908 15.9887 83.6194 16.1803 83.6174 16.3729V17.0867C83.8128 16.687 84.0788 16.327 84.4023 16.0248C84.7277 15.7214 85.0941 15.4666 85.4902 15.2681C85.9 15.0667 86.3331 14.9184 86.7793 14.8266C87.2361 14.7308 87.7014 14.6826 88.1678 14.6828C88.7812 14.672 89.3929 14.7518 89.9836 14.92C90.4705 15.0627 90.927 15.2962 91.3298 15.6086C91.7113 15.9109 92.0347 16.282 92.2836 16.7033C92.5506 17.166 92.7617 17.6598 92.9121 18.1739ZM109.348 17.059C109.201 17.2159 109.066 17.3846 108.945 17.5635L109.907 18.2597C110.144 18.4428 110.406 18.5914 110.684 18.7011C110.954 18.8054 111.24 18.8575 111.529 18.855C111.848 18.8668 112.166 18.8181 112.468 18.7112C112.701 18.6154 112.93 18.5069 113.178 18.3884C113.445 18.2587 113.721 18.1507 114.005 18.0655C114.426 17.9555 114.86 17.9063 115.294 17.9192C115.73 17.9181 116.164 17.9784 116.583 18.0983C116.998 18.2187 117.376 18.4404 117.686 18.744C118.042 19.1068 118.313 19.5454 118.481 20.0279C118.713 20.6959 118.841 21.3961 118.861 22.1039C118.816 22.0938 118.702 22.0762 118.518 22.0535C118.335 22.0308 118.101 22.0081 117.823 21.9854C117.709 21.976 117.589 21.9684 117.462 21.9604C117.281 21.9489 117.087 21.9366 116.879 21.9172C116.526 21.8845 116.161 21.8845 115.781 21.8845H115.781C114.578 21.8645 113.378 22.0019 112.209 22.2931C111.307 22.513 110.455 22.9079 109.701 23.4559C109.061 23.9249 108.548 24.5505 108.21 25.2746C107.899 25.9994 107.734 26.7798 107.724 27.5702C107.714 28.3607 107.859 29.1453 108.151 29.8781C108.426 30.5269 108.837 31.1071 109.355 31.5782C109.902 32.0646 110.54 32.4343 111.231 32.6654C112.01 32.9276 112.827 33.0563 113.647 33.0462C114.087 33.0407 114.524 32.9866 114.952 32.8848C115.937 32.6621 116.883 32.2869 117.756 31.7724C118.166 31.5338 118.545 31.2431 118.884 30.9072V31.3663C118.884 31.6304 118.933 31.8922 119.028 32.1382C119.111 32.3742 119.232 32.5948 119.385 32.7915H122.088V23.8999C122.088 23.128 122.054 22.3662 121.986 21.6146C121.923 20.885 121.798 20.1625 121.611 19.4553C121.438 18.7959 121.188 18.1599 120.866 17.561C120.549 16.9821 120.127 16.4687 119.624 16.0475C119.079 15.6024 118.458 15.2652 117.791 15.0537C116.978 14.802 116.131 14.6819 115.282 14.698C114.411 14.6873 113.544 14.8046 112.706 15.0461C111.945 15.2737 111.218 15.6082 110.548 16.04C110.303 16.2033 110.068 16.3819 109.845 16.5747C109.671 16.7271 109.505 16.8887 109.348 17.059ZM114.872 29.6939C114.462 29.7709 114.047 29.8114 113.63 29.815C113.27 29.8223 112.909 29.7868 112.557 29.7091C112.247 29.6417 111.952 29.515 111.688 29.3357C111.444 29.1674 111.245 28.9403 111.109 28.6749C110.96 28.3605 110.889 28.0144 110.9 27.6659C110.888 27.2399 111.022 26.8229 111.278 26.4854C111.553 26.1421 111.904 25.8705 112.304 25.6933C112.8 25.4738 113.324 25.3252 113.861 25.2519C114.501 25.1579 115.147 25.1124 115.794 25.1157C115.917 25.1157 116.039 25.1151 116.161 25.1146C116.401 25.1134 116.637 25.1123 116.872 25.1157L116.982 25.117L117.122 25.1182H117.123C117.376 25.1201 117.609 25.1218 117.825 25.1409C118.111 25.1661 118.349 25.1661 118.546 25.1661C118.66 25.1665 118.775 25.1749 118.888 25.1914V28.188C118.471 28.4396 118.038 28.6638 117.592 28.859C117.147 29.0534 116.692 29.2218 116.228 29.3635C115.783 29.5022 115.33 29.6126 114.872 29.6939ZM128.432 14.9477C128.524 15.0767 128.607 15.2125 128.68 15.3538C128.75 15.4993 128.809 15.6503 128.856 15.8053C128.913 15.989 128.942 16.1804 128.941 16.3729V17.6139C129.154 17.1894 129.437 16.8047 129.778 16.4763C130.523 15.7466 131.433 15.2131 132.428 14.9225C132.942 14.7697 133.475 14.6924 134.01 14.6929C134.887 14.6918 135.756 14.8631 136.569 15.1974L136.32 16.6428C136.255 17.0739 136.042 17.4678 135.719 17.7552C135.394 18.0253 134.984 18.1669 134.564 18.1537C134.531 18.1584 134.498 18.1584 134.465 18.1537C134.445 18.1487 134.425 18.1487 134.405 18.1537H134.281H133.978C133.333 18.1373 132.689 18.225 132.07 18.4135C131.513 18.587 130.983 18.8419 130.498 19.1702C130.075 19.4648 129.707 19.8328 129.41 20.2574C129.15 20.6117 128.988 21.0309 128.943 21.4707V32.7914H125.62V14.9477H128.432ZM145.255 28.8287C145.201 28.6522 145.173 28.4686 145.173 28.2838V18.1613H150.041V14.9301H145.173V8.68702H142.662C142.508 8.91874 142.374 9.16348 142.262 9.41853C142.148 9.68202 142.055 9.9545 141.984 10.2333C141.9 10.5629 141.859 10.9019 141.859 11.2422V14.9124H141.492C139.785 14.9141 138.931 15.3841 138.931 16.3224V18.1613H141.857V28.2611C141.851 28.9126 141.958 29.56 142.175 30.1732C142.37 30.7358 142.678 31.2511 143.079 31.6866C143.479 32.113 143.963 32.4491 144.5 32.6729C145.1 32.9182 145.743 33.0391 146.39 33.0286C146.748 33.0227 147.105 32.9779 147.453 32.8949C147.852 32.8028 148.243 32.6831 148.626 32.5367C149.001 32.3976 149.364 32.2289 149.714 32.0322C150.007 31.8661 150.279 31.6636 150.523 31.4293L150.126 30.8366C149.892 30.4886 149.597 30.1882 149.254 29.9512C148.898 29.7108 148.477 29.5867 148.049 29.5955C147.628 29.6075 147.211 29.6762 146.807 29.7998L146.405 29.8503C146.22 29.8541 146.037 29.8043 145.878 29.7065C145.729 29.6102 145.601 29.483 145.503 29.3332C145.397 29.1781 145.313 29.0082 145.255 28.8287ZM172.906 22.9842C172.897 22.1076 173.066 21.2386 173.402 20.4315C173.728 19.6523 174.2 18.9447 174.791 18.3479C175.383 17.7499 176.083 17.273 176.853 16.9429C177.648 16.6033 178.501 16.4283 179.364 16.4283C180.226 16.4283 181.08 16.6033 181.875 16.9429C183.422 17.6094 184.654 18.8603 185.31 20.4315C185.645 21.2397 185.817 22.1075 185.817 22.9842C185.817 23.8608 185.645 24.7287 185.31 25.5369C184.654 27.1081 183.422 28.3589 181.875 29.0254C181.08 29.3634 180.226 29.5375 179.364 29.5375C178.502 29.5375 177.648 29.3634 176.853 29.0254C176.087 28.6933 175.391 28.2165 174.801 27.6204C174.21 27.0234 173.738 26.3159 173.412 25.5369C173.073 24.7304 172.9 23.8614 172.906 22.9842ZM174.009 22.9842C174.007 23.4719 174.072 23.9575 174.202 24.427C174.326 24.8829 174.508 25.3204 174.744 25.7286C174.972 26.1313 175.253 26.5012 175.578 26.8284C175.904 27.1556 176.268 27.441 176.661 27.6784C177.061 27.9184 177.49 28.1033 177.938 28.2283C178.733 28.4509 179.568 28.484 180.378 28.325C181.188 28.166 181.951 27.8191 182.607 27.3116C183.263 26.804 183.794 26.1493 184.16 25.3987C184.526 24.6481 184.717 23.8218 184.717 22.9842C184.725 22.2573 184.585 21.5366 184.304 20.8678C183.758 19.5671 182.738 18.5306 181.458 17.9746C180.8 17.6875 180.09 17.5415 179.374 17.5458C178.893 17.5447 178.414 17.6101 177.95 17.74C177.502 17.864 177.073 18.0489 176.674 18.2899C176.28 18.5264 175.916 18.8111 175.591 19.1375C175.266 19.4653 174.986 19.835 174.756 20.2372C174.521 20.6456 174.339 21.0831 174.215 21.5388C174.08 22.0085 174.011 22.495 174.009 22.9842ZM188.388 21.0721V29.3962L189.52 29.3861V21.062H192.101V20.0253H189.523V18.8675C189.524 18.7176 189.547 18.5687 189.592 18.4261C189.638 18.2776 189.708 18.1379 189.799 18.0124C189.889 17.8892 190.003 17.7861 190.134 17.7097C190.275 17.6296 190.434 17.5895 190.596 17.5937H190.728H190.834L190.931 17.6113C191.129 17.6735 191.333 17.7099 191.54 17.7198C191.68 17.7246 191.82 17.7032 191.952 17.6567C192.071 17.5994 192.175 17.5127 192.253 17.4045L192.432 17.122C192.298 17.0328 192.158 16.9528 192.014 16.8823C191.858 16.8087 191.698 16.7439 191.535 16.6881C191.372 16.6356 191.206 16.5935 191.038 16.562C190.89 16.5352 190.739 16.5209 190.588 16.5191C190.276 16.515 189.966 16.5741 189.677 16.6931C189.414 16.8025 189.177 16.9666 188.981 17.1749C188.787 17.3867 188.638 17.6365 188.542 17.909C188.437 18.2085 188.385 18.5244 188.388 18.8423V19.9875H187.797C187.081 19.9875 186.724 20.1262 186.724 20.3986V21.0721H188.388ZM195.248 29.3962V21.0721H193.584V20.3986C193.584 20.1262 193.942 19.9875 194.657 19.9875H195.248V18.8423C195.244 18.5243 195.296 18.2082 195.402 17.909C195.498 17.6365 195.648 17.3867 195.842 17.175C196.038 16.9666 196.275 16.8025 196.537 16.6932C196.827 16.5739 197.137 16.5147 197.449 16.5191C197.6 16.521 197.75 16.5354 197.898 16.562C198.067 16.5932 198.232 16.6353 198.395 16.6881C198.559 16.7434 198.719 16.8083 198.875 16.8824C199.02 16.9522 199.16 17.0323 199.294 17.122L199.103 17.4045C199.027 17.513 198.924 17.5999 198.805 17.6567C198.672 17.7035 198.531 17.7248 198.39 17.7198C198.185 17.7099 197.981 17.6734 197.784 17.6113L197.687 17.5937H197.581H197.449C197.287 17.5895 197.128 17.6296 196.987 17.7097C196.856 17.7862 196.742 17.8892 196.652 18.0124C196.56 18.1373 196.49 18.2772 196.445 18.4261C196.399 18.5686 196.375 18.7175 196.373 18.8675V20.0253H198.959V21.062H196.373V29.3861L195.248 29.3962ZM200.549 17.0009C200.502 17.1143 200.478 17.2361 200.479 17.3591C200.479 17.4802 200.502 17.6003 200.547 17.7124C200.592 17.8245 200.659 17.9265 200.743 18.0124C200.826 18.096 200.925 18.1628 201.033 18.2092C201.171 18.2674 201.321 18.2901 201.469 18.2755C201.618 18.2608 201.76 18.2091 201.885 18.125C202.009 18.0409 202.11 17.927 202.181 17.7934C202.251 17.6598 202.288 17.5106 202.288 17.3591C202.288 17.2076 202.251 17.0584 202.181 16.9248C202.11 16.7912 202.009 16.6773 201.885 16.5932C201.76 16.5091 201.618 16.4574 201.469 16.4427C201.321 16.4281 201.171 16.4508 201.033 16.509C200.925 16.5554 200.826 16.6222 200.743 16.7058C200.66 16.7904 200.594 16.8906 200.549 17.0009ZM201.94 29.3962V20.0051H200.812V29.3962H201.94ZM208.597 21.0066C208.102 21.0011 207.612 21.099 207.156 21.2942C206.284 21.6637 205.59 22.3668 205.224 23.2516C204.94 23.9312 204.862 24.6812 205 25.4059C205.138 26.1307 205.486 26.7971 205.999 27.3203C206.329 27.6579 206.723 27.9255 207.156 28.1073C207.609 28.3012 208.096 28.399 208.587 28.3948C208.905 28.3929 209.221 28.3462 209.526 28.2561C209.825 28.1676 210.116 28.0493 210.393 27.903C210.482 27.854 210.576 27.8135 210.673 27.7819C210.767 27.7496 210.865 27.7326 210.964 27.7314C211.112 27.7306 211.257 27.7708 211.384 27.8475C211.506 27.924 211.619 28.0146 211.721 28.1174L211.818 28.2158C211.633 28.4029 211.431 28.5718 211.215 28.7202C210.973 28.8832 210.717 29.0234 210.45 29.139C210.163 29.2648 209.865 29.3636 209.56 29.4341C209.241 29.5093 208.914 29.5466 208.587 29.5451C208.158 29.5465 207.731 29.4879 207.318 29.371C206.92 29.2585 206.539 29.0949 206.182 28.8842C205.11 28.2412 204.326 27.2001 203.997 25.9809C203.765 25.142 203.765 24.2545 203.997 23.4156C204.111 23.0088 204.278 22.6194 204.493 22.2577C204.908 21.5399 205.497 20.9423 206.205 20.5223C206.561 20.3116 206.943 20.148 207.34 20.0355C207.753 19.9186 208.18 19.86 208.609 19.8614C208.93 19.8602 209.251 19.8941 209.565 19.9623C210.15 20.0904 210.705 20.3291 211.202 20.6661C211.43 20.8141 211.643 20.983 211.841 21.1706L211.744 21.269C211.638 21.3864 211.514 21.4867 211.379 21.5666C211.241 21.6377 211.088 21.6732 210.934 21.67C210.841 21.6712 210.749 21.6558 210.661 21.6246C210.575 21.5934 210.492 21.5546 210.412 21.5086C210.139 21.3482 209.846 21.226 209.541 21.1454C209.232 21.0643 208.915 21.0178 208.597 21.0066ZM218.95 20.1365C218.445 19.9535 217.913 19.8613 217.377 19.8641C216.738 19.8605 216.106 19.991 215.519 20.2475C214.954 20.4942 214.44 20.8458 214.002 21.2842C213.565 21.7261 213.215 22.2483 212.971 22.8229C212.717 23.4166 212.589 24.0575 212.593 24.7047C212.592 25.5635 212.819 26.4068 213.249 27.1464C213.456 27.504 213.706 27.8336 213.994 28.1276C214.282 28.4211 214.606 28.6754 214.958 28.8843C215.315 29.095 215.697 29.2586 216.096 29.3712C216.508 29.4882 216.934 29.5468 217.362 29.5452C217.69 29.5448 218.017 29.505 218.336 29.4267C218.655 29.346 218.966 29.2345 219.265 29.0937C219.846 28.821 220.377 28.4481 220.832 27.9914C220.755 27.9309 220.686 27.8728 220.626 27.8199C220.566 27.7689 220.502 27.7225 220.435 27.6811C220.37 27.6425 220.301 27.6128 220.229 27.5928C220.148 27.5708 220.064 27.5598 219.98 27.5601C219.881 27.5608 219.781 27.5735 219.685 27.5979C219.587 27.6187 219.493 27.658 219.409 27.7139C219.254 27.8127 219.093 27.902 218.927 27.9813C218.756 28.0644 218.58 28.1376 218.401 28.2008C218.225 28.2624 218.044 28.3113 217.862 28.3471C217.698 28.3829 217.532 28.4015 217.365 28.4025C216.678 28.4092 216.003 28.2168 215.419 27.8477C214.836 27.4787 214.368 26.9484 214.071 26.319C213.87 25.8871 213.756 25.4189 213.736 24.9418H220.939C221.082 24.9422 221.224 24.9112 221.354 24.851C221.481 24.7916 221.595 24.7057 221.687 24.5987C221.781 24.4928 221.857 24.3717 221.913 24.2405C221.968 24.1028 221.996 23.9554 221.995 23.8067C221.992 23.7011 221.978 23.5962 221.953 23.4939C221.815 22.979 221.6 22.4889 221.314 22.041C221.036 21.6058 220.691 21.2183 220.293 20.8933C219.889 20.5686 219.435 20.3131 218.95 20.1365ZM214.96 21.9148C215.63 21.3237 216.49 21.0009 217.377 21.0068H217.387C217.777 21.0063 218.164 21.0676 218.535 21.1884C218.901 21.3133 219.245 21.5001 219.551 21.7408C219.866 21.9834 220.139 22.2785 220.358 22.6136C220.59 22.9727 220.758 23.3706 220.855 23.789H214.233C214.173 23.7859 214.113 23.7974 214.059 23.8224C214.005 23.8474 213.957 23.8852 213.92 23.9328C213.857 24.0095 213.806 24.0943 213.766 24.185C213.875 23.3048 214.301 22.4966 214.96 21.9148Z" fill="black"/>
</g>
<defs>
<clipPath id="clip0_77_46">
<rect width="222" height="43" fill="white"/>
</clipPath>
</defs>
</svg>
